<svg 
 xmlns="http://www.w3.org/2000/svg"
 xmlns:xlink="http://www.w3.org/1999/xlink"
 width="47px" height="32px">
<path fill-rule="evenodd"  opacity="0.2" fill="rgb(255, 255, 255)"
 d="M0.005,15.553 C0.005,23.723 4.028,31.993 11.718,31.993 L31.305,31.993 C39.958,31.993 46.997,24.816 46.997,15.994 C46.997,7.171 39.958,-0.005 31.305,-0.005 L11.718,-0.005 C3.670,-0.005 0.005,8.059 0.005,15.553 ZM2.959,15.553 C2.959,9.308 5.667,3.006 11.718,3.006 L19.087,3.006 C23.204,13.981 20.104,25.627 19.039,28.982 L11.718,28.982 C6.029,28.982 2.959,22.063 2.959,15.553 ZM44.043,15.994 C44.043,23.155 38.329,28.982 31.305,28.982 L22.144,28.982 C22.941,26.292 24.149,21.230 24.149,15.246 C24.149,11.415 23.647,7.206 22.229,3.006 L31.305,3.006 C38.329,3.006 44.043,8.832 44.043,15.994 ZM17.090,17.311 L6.382,17.311 C5.567,17.311 4.906,16.637 4.906,15.805 C4.906,14.974 5.567,14.299 6.382,14.299 L17.090,14.299 C17.905,14.299 18.567,14.974 18.567,15.805 C18.567,16.637 17.906,17.311 17.090,17.311 Z"/>
</svg>