<svg> 
    <symbol id="clients" xmlns="http://www.w3.org/2000/svg" viewBox="0 0 34 40">
        <path d="M33.239,0.898 C33.334,0.972 33.241,1.250 33.023,1.519 C32.996,1.556 32.966,1.591 32.938,1.624 C32.886,1.679 32.958,2.448 33.001,3.355 C33.054,4.489 33.014,5.919 32.744,7.570 C32.720,7.728 32.693,7.882 32.667,8.031 C32.644,8.150 32.627,8.259 32.602,8.377 C32.494,8.934 32.376,9.427 32.266,9.841 C32.051,10.643 31.577,11.973 31.229,12.814 C30.203,15.281 28.635,17.977 26.256,20.772 C25.663,21.469 25.365,22.718 25.527,23.613 C26.076,26.660 26.468,33.303 20.537,36.818 C19.745,37.288 19.165,36.842 19.180,35.933 C19.239,31.927 17.752,21.976 1.433,22.277 C0.508,22.293 -0.049,21.627 0.312,20.790 C1.457,18.134 4.632,13.018 12.047,13.266 C12.969,13.297 14.054,12.749 14.544,11.979 C15.827,9.960 18.616,6.217 23.024,3.544 C25.745,1.846 28.244,1.126 29.803,0.820 C30.710,0.644 31.483,0.561 31.515,0.514 C31.533,0.487 31.553,0.459 31.574,0.431 C31.788,0.162 32.040,0.001 32.138,0.072 L32.208,0.124 C32.247,0.152 32.519,0.100 32.813,0.009 C33.108,-0.083 33.296,0.060 33.234,0.328 C33.174,0.595 33.149,0.831 33.181,0.855 C33.213,0.879 33.239,0.898 33.239,0.898 ZM23.567,11.431 C22.189,10.654 20.489,10.939 19.484,12.030 C19.343,12.184 19.216,12.351 19.106,12.539 C18.211,14.048 18.761,15.993 20.336,16.884 C21.710,17.663 23.410,17.376 24.418,16.284 C24.555,16.132 24.686,15.964 24.797,15.776 C25.692,14.265 25.138,12.318 23.567,11.431 ZM7.695,25.333 C8.475,24.846 8.957,25.263 8.605,26.103 C7.809,28.005 6.116,31.195 3.189,32.923 C2.397,33.390 1.877,32.918 2.228,32.078 C2.987,30.259 4.628,27.251 7.695,25.333 ZM11.126,27.964 C11.919,27.498 12.405,27.909 12.083,28.761 C11.111,31.335 8.707,36.427 4.238,38.850 C3.430,39.287 2.908,38.819 3.224,37.967 C4.141,35.506 6.433,30.733 11.126,27.964 ZM14.571,30.624 C15.351,30.137 15.832,30.554 15.481,31.394 C14.685,33.297 12.991,36.488 10.064,38.218 C9.272,38.686 8.753,38.214 9.104,37.372 C9.862,35.554 11.502,32.544 14.571,30.624 Z"/>
    </symbol>

    <symbol id="branding" xmlns="http://www.w3.org/2000/svg" viewBox="0 0 41 38">
        <path d="M39.168,32.392 L2.281,32.392 C1.396,32.392 0.678,31.673 0.678,30.787 L0.678,7.525 C0.678,6.640 1.396,5.921 2.281,5.921 L25.303,5.921 L23.608,8.327 L3.084,8.327 L3.084,27.579 L38.366,27.579 L38.366,8.327 L31.951,8.327 L34.162,5.921 L39.168,5.921 C40.054,5.921 40.772,6.640 40.772,7.525 L40.772,30.787 C40.772,31.673 40.054,32.392 39.168,32.392 ZM18.206,23.310 C14.483,24.851 9.150,23.647 11.369,23.629 C13.588,23.612 13.864,23.077 14.587,20.849 C15.921,17.332 21.928,21.770 18.206,23.310 ZM20.652,19.117 C19.528,20.512 19.788,20.450 18.711,19.582 C17.635,18.715 17.629,18.981 18.753,17.587 L30.136,1.409 C31.260,0.014 33.043,-0.413 34.120,0.455 C35.197,1.322 35.158,3.156 34.034,4.552 L20.652,19.117 ZM30.472,1.753 C31.027,2.197 31.193,2.391 31.193,2.391 C31.193,2.391 31.388,1.560 32.938,0.644 C32.938,0.644 31.303,0.395 30.472,1.753 ZM15.543,36.941 C16.238,36.430 16.310,35.661 16.310,35.661 L16.572,33.996 L24.877,33.996 L25.137,35.662 C25.137,35.662 25.211,36.430 25.906,36.941 C26.600,37.454 27.148,37.892 26.601,37.965 C26.072,38.036 21.093,37.971 20.725,37.965 C20.357,37.971 15.377,38.036 14.849,37.965 C14.300,37.890 14.849,37.452 15.543,36.941 Z"/>
    </symbol>
    
    <symbol id="marketing" xmlns="http://www.w3.org/2000/svg" viewBox="0 0 37 37">
        <path d="M33.110,37.000 L3.895,37.000 C1.753,37.000 -0.000,35.244 -0.000,33.105 L-0.000,3.894 C-0.000,1.749 1.753,-0.001 3.895,-0.001 L33.110,-0.001 C35.248,-0.001 37.000,1.749 37.000,3.894 L37.000,33.105 C37.000,35.244 35.248,37.000 33.110,37.000 ZM32.774,5.270 L4.225,5.270 L4.225,24.745 L32.774,24.745 L32.774,5.270 ZM34.326,30.220 L14.395,30.220 C14.046,28.751 12.733,27.653 11.156,27.653 C9.579,27.653 8.267,28.751 7.918,30.220 L2.676,30.220 L2.676,31.762 L7.922,31.762 C8.270,33.228 9.581,34.322 11.156,34.322 C12.732,34.322 14.043,33.228 14.391,31.762 L34.326,31.762 L34.326,30.220 ZM14.904,21.454 L10.921,21.454 L10.921,13.231 L14.904,13.231 L14.904,21.454 ZM20.398,21.454 L16.414,21.454 L16.414,11.048 L20.398,11.048 L20.398,21.454 ZM25.888,21.454 L21.907,21.454 L21.907,8.093 L25.888,8.093 L25.888,21.454 Z"/>
    </symbol>

    <symbol id="adv" xmlns="http://www.w3.org/2000/svg" viewBox="0 0 37 38">
        <path d="M34.615,20.156 L34.638,31.705 C34.716,33.135 33.613,31.765 33.613,31.765 C33.613,31.765 28.834,22.928 14.859,22.955 C14.859,22.955 13.538,22.956 13.538,21.696 L13.517,10.765 C13.517,10.765 13.281,9.506 14.756,9.503 C14.756,9.503 27.260,10.238 33.305,0.811 C33.305,0.811 34.578,-0.873 34.582,0.640 L34.601,12.214 C36.019,12.975 37.003,14.451 37.003,16.180 C37.007,17.905 36.030,19.394 34.615,20.156 ZM20.844,10.663 C31.496,10.555 33.041,3.329 33.041,3.329 C29.065,9.509 20.844,10.663 20.844,10.663 ZM34.972,13.180 C36.554,15.500 36.130,17.469 36.130,17.469 C37.096,14.417 34.972,13.180 34.972,13.180 ZM12.111,23.826 C12.112,24.887 10.770,26.749 10.770,26.749 C9.778,29.706 12.270,30.760 10.527,32.566 C12.844,37.325 8.187,38.000 8.187,38.000 C6.591,38.000 6.841,36.409 6.841,36.409 L6.825,26.493 C6.961,23.979 5.392,23.921 5.392,23.921 C1.603,23.926 1.442,19.868 1.436,19.379 C0.569,18.786 -0.003,17.789 -0.003,16.659 C-0.003,15.532 0.565,14.539 1.428,13.947 L1.428,13.837 C1.421,9.852 5.537,9.665 5.537,9.665 L10.743,9.656 C12.426,9.652 12.175,11.159 12.171,11.163 L12.111,23.826 Z"/>
    </symbol>
    
    <symbol id="lamp" xmlns="http://www.w3.org/2000/svg" viewBox="0 0 19 25">
        <path d="M15.833,9.375 C15.833,12.500 12.667,15.576 12.667,18.750 L6.333,18.750 C6.333,15.674 3.167,12.500 3.167,9.375 C3.167,5.923 6.002,3.125 9.500,3.125 C12.997,3.125 15.833,5.923 15.833,9.375 ZM11.875,21.875 L7.125,21.875 C6.687,21.875 6.333,22.224 6.333,22.656 C6.333,23.088 6.687,23.437 7.125,23.437 L7.270,23.437 C7.597,24.347 8.467,25.000 9.500,25.000 C10.533,25.000 11.403,24.347 11.730,23.437 L11.875,23.437 C12.313,23.437 12.667,23.088 12.667,22.656 C12.667,22.224 12.313,21.875 11.875,21.875 ZM11.875,19.531 L7.125,19.531 C6.687,19.531 6.333,19.881 6.333,20.312 C6.333,20.744 6.687,21.094 7.125,21.094 L11.875,21.094 C12.313,21.094 12.667,20.744 12.667,20.312 C12.667,19.881 12.313,19.531 11.875,19.531 ZM0.877,5.365 L2.298,6.173 C2.517,5.694 2.785,5.246 3.094,4.823 L1.668,4.010 L0.877,5.365 ZM10.292,1.641 L10.292,-0.000 L8.708,-0.000 L8.708,1.641 C8.973,1.614 9.228,1.562 9.500,1.562 C9.772,1.562 10.027,1.614 10.292,1.641 ZM6.256,2.267 L5.436,0.865 L4.063,1.646 L4.888,3.053 C5.316,2.748 5.770,2.484 6.256,2.267 ZM18.123,5.365 L17.332,4.010 L15.906,4.823 C16.215,5.246 16.484,5.694 16.704,6.173 L18.123,5.365 ZM14.935,1.646 L13.565,0.865 L12.745,2.267 C13.229,2.484 13.686,2.748 14.112,3.052 L14.935,1.646 ZM1.583,9.375 C1.583,9.106 1.636,8.854 1.664,8.594 L-0.000,8.594 L-0.000,10.156 L1.667,10.156 C1.636,9.897 1.583,9.640 1.583,9.375 ZM17.336,8.594 C17.364,8.854 17.417,9.106 17.417,9.375 C17.417,9.640 17.364,9.897 17.333,10.156 L19.000,10.156 L19.000,8.594 L17.336,8.594 ZM16.036,14.000 L17.332,14.738 L18.123,13.385 L16.685,12.567 C16.486,13.052 16.269,13.528 16.036,14.000 ZM0.877,13.385 L1.668,14.738 L2.953,14.007 C2.721,13.534 2.505,13.055 2.309,12.570 L0.877,13.385 Z"/>
    </symbol>

    <symbol id="monitor" xmlns="http://www.w3.org/2000/svg" viewBox="0 0 23 21">
        <path d="M21.610,17.596 L1.394,17.596 C0.622,17.596 -0.008,16.955 -0.008,16.175 L-0.008,1.425 C-0.008,0.645 0.622,0.003 1.394,0.003 L21.610,0.003 C22.381,0.003 23.011,0.645 23.011,1.425 L23.011,16.175 C23.011,16.955 22.381,17.596 21.610,17.596 ZM21.257,1.997 L1.745,1.997 L1.745,15.129 L21.257,15.129 L21.257,1.997 ZM4.725,10.594 C4.921,10.594 5.093,10.669 5.243,10.774 L9.546,7.377 C9.509,7.274 9.482,7.166 9.482,7.050 C9.482,6.525 9.901,6.099 10.419,6.099 C10.937,6.099 11.357,6.525 11.357,7.050 C11.357,7.166 11.329,7.273 11.292,7.376 C12.012,7.997 13.004,8.853 13.626,9.389 C13.786,9.260 13.980,9.171 14.200,9.171 C14.387,9.171 14.551,9.240 14.697,9.335 C15.350,8.737 16.390,7.784 17.072,7.159 C17.029,7.050 17.002,6.931 17.002,6.806 C17.002,6.280 17.421,5.854 17.939,5.854 C18.457,5.854 18.877,6.280 18.877,6.806 C18.877,7.331 18.457,7.757 17.939,7.757 C17.782,7.757 17.641,7.708 17.511,7.639 L15.087,9.859 C15.111,9.944 15.139,10.029 15.139,10.122 C15.139,10.649 14.718,11.075 14.200,11.075 C13.682,11.075 13.262,10.649 13.262,10.122 C13.262,10.065 13.284,10.015 13.294,9.961 C12.536,9.307 11.491,8.405 10.870,7.869 C10.734,7.946 10.586,8.002 10.419,8.002 C10.218,8.002 10.042,7.924 9.889,7.814 C8.924,8.569 6.807,10.297 5.609,11.277 C5.635,11.364 5.662,11.450 5.662,11.545 C5.662,12.070 5.242,12.496 4.725,12.496 C4.207,12.496 3.787,12.070 3.787,11.545 C3.787,11.020 4.207,10.594 4.725,10.594 ZM14.133,18.272 L16.779,20.999 L6.262,20.999 L8.907,18.272 L14.133,18.272 Z"/>
    </symbol>
    
    <symbol id="brain" xmlns="http://www.w3.org/2000/svg" viewBox="0 0 22 25">
        <path d="M21.884,15.240 C21.185,16.009 19.995,16.038 19.995,16.038 C19.995,16.038 20.768,17.501 20.421,17.906 C20.073,18.312 19.109,18.138 19.109,18.138 C19.109,18.138 20.005,18.784 20.005,19.284 C20.005,19.784 18.490,20.451 18.490,20.451 C18.490,20.451 18.768,23.223 16.491,23.031 C14.216,22.838 13.834,22.198 13.834,22.198 L13.160,24.999 L4.352,24.999 L4.661,18.908 C4.661,18.908 -0.748,13.050 0.103,7.810 C0.530,5.718 0.258,1.335 7.520,0.180 C14.782,-0.978 21.325,2.699 19.680,10.734 C19.680,12.199 22.585,14.473 21.884,15.240 ZM13.275,7.859 C13.275,7.859 12.598,7.468 12.260,7.273 C12.250,7.079 12.229,6.887 12.189,6.700 C12.457,6.471 12.994,6.013 12.994,6.013 L12.994,5.090 L11.672,3.552 L10.745,3.552 C10.745,3.552 10.306,3.927 10.088,4.115 C9.848,3.999 9.598,3.905 9.334,3.834 C9.312,3.574 9.271,3.053 9.271,3.053 L8.616,2.399 L6.593,2.562 L5.938,3.215 C5.938,3.215 5.993,3.901 6.022,4.244 C5.824,4.356 5.636,4.483 5.462,4.624 C5.178,4.494 4.609,4.234 4.609,4.234 L3.713,4.469 L2.866,6.310 L2.835,6.436 L3.100,7.205 C3.100,7.205 3.761,7.506 4.091,7.657 C4.106,7.874 4.139,8.086 4.194,8.292 C3.942,8.506 3.437,8.931 3.437,8.931 L3.437,9.855 L4.749,11.400 C4.749,11.400 5.512,11.490 5.553,11.468 C5.594,11.445 5.676,11.400 5.676,11.400 C5.676,11.400 6.155,10.995 6.395,10.793 C6.597,10.883 6.808,10.960 7.028,11.018 C7.052,11.289 7.101,11.832 7.101,11.832 L7.757,12.485 L9.777,12.301 L10.432,11.647 C10.432,11.647 10.368,10.948 10.337,10.597 C10.502,10.503 10.661,10.401 10.809,10.286 C11.073,10.436 11.599,10.740 11.599,10.740 L12.495,10.505 L13.510,8.752 L13.275,7.859 ZM15.845,15.293 C15.845,15.293 15.410,15.043 15.193,14.918 C15.188,14.793 15.174,14.670 15.149,14.550 C15.320,14.403 15.664,14.109 15.664,14.109 L15.664,13.516 L14.816,12.529 L14.221,12.529 C14.221,12.529 13.940,12.770 13.800,12.890 C13.646,12.817 13.486,12.756 13.316,12.710 C13.302,12.543 13.276,12.209 13.276,12.209 L12.856,11.790 L11.558,11.895 L11.139,12.313 C11.139,12.313 11.174,12.753 11.192,12.974 C11.065,13.045 10.944,13.126 10.833,13.217 C10.650,13.133 10.286,12.968 10.286,12.968 L9.710,13.118 L9.167,14.298 L9.148,14.380 L9.318,14.873 C9.318,14.873 9.742,15.066 9.954,15.162 C9.964,15.302 9.985,15.437 10.020,15.570 C9.858,15.707 9.535,15.980 9.535,15.980 L9.535,16.572 L10.376,17.565 C10.376,17.565 10.866,17.623 10.892,17.608 C10.917,17.594 10.970,17.565 10.970,17.565 C10.970,17.565 11.277,17.305 11.432,17.175 C11.561,17.232 11.695,17.283 11.836,17.320 C11.852,17.495 11.884,17.842 11.884,17.842 L12.304,18.262 L13.599,18.143 L14.018,17.725 C14.018,17.725 13.978,17.276 13.957,17.051 C14.064,16.990 14.166,16.926 14.261,16.851 C14.431,16.948 14.768,17.142 14.768,17.142 L15.342,16.992 L15.995,15.867 L15.845,15.293 ZM12.501,16.333 C11.778,16.333 11.192,15.748 11.192,15.027 C11.192,14.305 11.778,13.721 12.501,13.721 C13.224,13.721 13.810,14.305 13.810,15.027 C13.810,15.748 13.224,16.333 12.501,16.333 ZM8.063,9.479 C6.936,9.479 6.021,8.567 6.021,7.443 C6.021,6.317 6.936,5.406 8.063,5.406 C9.191,5.406 10.105,6.317 10.105,7.443 C10.105,8.567 9.191,9.479 8.063,9.479 Z"/>
    </symbol>

    <symbol id="like" xmlns="http://www.w3.org/2000/svg" viewBox="0 0 23 21">
        <path d="M22.939,8.941 L21.213,18.158 C21.170,18.386 21.140,18.760 21.093,18.987 C20.855,20.130 19.670,21.000 18.509,21.000 L10.334,21.000 C9.860,21.000 9.420,20.851 9.052,20.600 C8.865,20.472 8.577,20.245 8.386,20.124 C7.684,19.679 6.881,19.165 5.648,19.071 C5.424,19.054 5.084,18.964 4.888,18.850 L3.716,18.169 C3.520,18.055 3.362,17.775 3.362,17.543 L3.362,9.272 C3.362,9.041 3.533,8.789 3.744,8.710 L6.466,7.699 C6.677,7.620 7.010,7.471 7.207,7.360 C8.175,6.813 10.857,5.177 12.254,3.143 C13.327,1.579 14.386,-0.000 15.116,-0.000 C15.559,0.000 15.881,0.579 16.014,2.090 C16.174,3.906 15.874,4.972 15.346,5.765 C15.220,5.957 15.282,6.099 15.506,6.099 L20.666,6.099 C21.826,6.099 22.790,6.968 22.981,8.111 C23.020,8.339 22.982,8.713 22.939,8.941 ZM2.166,18.967 L0.677,18.967 C0.303,18.967 -0.000,18.654 -0.000,18.267 L-0.000,8.611 C-0.000,8.224 0.303,7.911 0.677,7.911 L2.166,7.911 C2.540,7.911 2.843,8.224 2.843,8.611 L2.843,18.267 C2.843,18.654 2.540,18.967 2.166,18.967 Z"/>
    </symbol>

    <symbol id="quotes" xmlns="http://www.w3.org/2000/svg" viewBox="0 0 34 29">
        <path d="M34.005,15.711 L34.005,28.995 L18.218,28.995 L18.218,15.711 C18.218,5.688 20.649,0.005 29.150,0.005 L29.150,8.099 C25.507,8.099 25.507,8.825 25.507,13.174 L25.507,15.711 L34.005,15.711 ZM-0.006,15.711 C-0.006,5.688 2.427,0.005 10.929,0.005 L10.929,8.098 C7.285,8.098 7.285,8.824 7.285,13.173 L7.285,15.711 L15.791,15.711 L15.791,28.995 L-0.006,28.995 L-0.006,15.711 Z"/>
    </symbol>
   
</svg>